<svg width="31" height="30" viewBox="0 0 31 30" fill="none" xmlns="http://www.w3.org/2000/svg">
<path d="M16.625 16.125C16.625 16.7463 16.1213 17.25 15.5 17.25C14.8787 17.25 14.375 16.7463 14.375 16.125C14.375 15.5037 14.8787 15 15.5 15C16.1213 15 16.625 15.5037 16.625 16.125Z" fill="#94A3B8"/>
<path d="M8.75 20.625C9.37132 20.625 9.875 20.1213 9.875 19.5C9.875 18.8787 9.37132 18.375 8.75 18.375C8.12868 18.375 7.625 18.8787 7.625 19.5C7.625 20.1213 8.12868 20.625 8.75 20.625Z" fill="#94A3B8"/>
<path d="M9.875 22.875C9.875 23.4963 9.37132 24 8.75 24C8.12868 24 7.625 23.4963 7.625 22.875C7.625 22.2537 8.12868 21.75 8.75 21.75C9.37132 21.75 9.875 22.2537 9.875 22.875Z" fill="#94A3B8"/>
<path d="M12.125 20.625C12.7463 20.625 13.25 20.1213 13.25 19.5C13.25 18.8787 12.7463 18.375 12.125 18.375C11.5037 18.375 11 18.8787 11 19.5C11 20.1213 11.5037 20.625 12.125 20.625Z" fill="#94A3B8"/>
<path d="M13.25 22.875C13.25 23.4963 12.7463 24 12.125 24C11.5037 24 11 23.4963 11 22.875C11 22.2537 11.5037 21.75 12.125 21.75C12.7463 21.75 13.25 22.2537 13.25 22.875Z" fill="#94A3B8"/>
<path d="M15.5 20.625C16.1213 20.625 16.625 20.1213 16.625 19.5C16.625 18.8787 16.1213 18.375 15.5 18.375C14.8787 18.375 14.375 18.8787 14.375 19.5C14.375 20.1213 14.8787 20.625 15.5 20.625Z" fill="#94A3B8"/>
<path d="M16.625 22.875C16.625 23.4963 16.1213 24 15.5 24C14.8787 24 14.375 23.4963 14.375 22.875C14.375 22.2537 14.8787 21.75 15.5 21.75C16.1213 21.75 16.625 22.2537 16.625 22.875Z" fill="#94A3B8"/>
<path d="M18.875 20.625C19.4963 20.625 20 20.1213 20 19.5C20 18.8787 19.4963 18.375 18.875 18.375C18.2537 18.375 17.75 18.8787 17.75 19.5C17.75 20.1213 18.2537 20.625 18.875 20.625Z" fill="#94A3B8"/>
<path d="M20 22.875C20 23.4963 19.4963 24 18.875 24C18.2537 24 17.75 23.4963 17.75 22.875C17.75 22.2537 18.2537 21.75 18.875 21.75C19.4963 21.75 20 22.2537 20 22.875Z" fill="#94A3B8"/>
<path d="M22.25 20.625C22.8713 20.625 23.375 20.1213 23.375 19.5C23.375 18.8787 22.8713 18.375 22.25 18.375C21.6287 18.375 21.125 18.8787 21.125 19.5C21.125 20.1213 21.6287 20.625 22.25 20.625Z" fill="#94A3B8"/>
<path d="M20 16.125C20 16.7463 19.4963 17.25 18.875 17.25C18.2537 17.25 17.75 16.7463 17.75 16.125C17.75 15.5037 18.2537 15 18.875 15C19.4963 15 20 15.5037 20 16.125Z" fill="#94A3B8"/>
<path d="M22.25 17.25C22.8713 17.25 23.375 16.7463 23.375 16.125C23.375 15.5037 22.8713 15 22.25 15C21.6287 15 21.125 15.5037 21.125 16.125C21.125 16.7463 21.6287 17.25 22.25 17.25Z" fill="#94A3B8"/>
<path fill-rule="evenodd" clip-rule="evenodd" d="M7.625 0.375C8.24632 0.375 8.75 0.87868 8.75 1.5V3.75H22.25V1.5C22.25 0.87868 22.7537 0.375 23.375 0.375C23.9963 0.375 24.5 0.87868 24.5 1.5V3.75H25.625C28.1103 3.75 30.125 5.76472 30.125 8.25V25.125C30.125 27.6103 28.1103 29.625 25.625 29.625H5.375C2.88972 29.625 0.875 27.6103 0.875 25.125V8.25C0.875 5.76472 2.88972 3.75 5.375 3.75H6.5V1.5C6.5 0.87868 7.00368 0.375 7.625 0.375ZM27.875 13.875C27.875 12.6324 26.8676 11.625 25.625 11.625H5.375C4.13236 11.625 3.125 12.6324 3.125 13.875V25.125C3.125 26.3676 4.13236 27.375 5.375 27.375H25.625C26.8676 27.375 27.875 26.3676 27.875 25.125V13.875Z" fill="#94A3B8"/>
</svg>
