<svg xmlns="http://www.w3.org/2000/svg" xmlns:xlink="http://www.w3.org/1999/xlink" version="1.1" width="512" height="512" x="0" y="0" viewBox="0 0 24 24" style="enable-background:new 0 0 512 512" xml:space="preserve" class=""><g><g data-name="Layer 2"><path d="M20.659 7.751H17a.75.75 0 0 1 0-1.5h2.956l.212-3.3a.743.743 0 0 1 .8-.7.751.751 0 0 1 .7.8l-.258 4a.75.75 0 0 1-.751.7z" fill="#ff5f0b" opacity="1" data-original="#000000" class=""/><path d="M2 12.75a.75.75 0 0 1-.75-.75 10.751 10.751 0 0 1 20.062-5.375.75.75 0 0 1-1.3.75A9.251 9.251 0 0 0 2.75 12a.75.75 0 0 1-.75.75zM12 22.75a10.792 10.792 0 0 1-9.312-5.375.75.75 0 0 1 1.3-.75A9.251 9.251 0 0 0 21.25 12a.75.75 0 0 1 1.5 0A10.762 10.762 0 0 1 12 22.75z" fill="#ff5f0b" opacity="1" data-original="#000000" class=""/><path d="M3.084 21.747h-.049a.751.751 0 0 1-.7-.8l.258-4a.75.75 0 0 1 .748-.7H7a.75.75 0 0 1 0 1.5H4.044l-.212 3.3a.75.75 0 0 1-.748.7z" fill="#ff5f0b" opacity="1" data-original="#000000" class=""/><path d="M12 22.75a10.792 10.792 0 0 1-9.312-5.375.75.75 0 0 1 1.3-.75A9.251 9.251 0 0 0 21.25 12a.75.75 0 0 1 1.5 0A10.762 10.762 0 0 1 12 22.75zM2 12.75a.75.75 0 0 1-.75-.75 10.751 10.751 0 0 1 20.062-5.375.75.75 0 0 1-1.3.75A9.251 9.251 0 0 0 2.75 12a.75.75 0 0 1-.75.75z" fill="#ff5f0b" opacity="1" data-original="#000000" class=""/></g></g></svg>